# xmcd
#
# Track frame offsets: 
#        150
#        11505
#        22787
#        38127
#        51515
#        64290
#        77960
#        90702
#        105935
#        119832
#        133370
#        146930
#        161967
#
# Disc length: 2338 seconds
#
# Revision: 1
# Processed by: cddbd v1.5.2PL0 Copyright (c) Steve Scherf et al.
# Submitted via: ExactAudioCopy v1.0b3
#
DISCID=bd09200d
DTITLE=Various Artist - Jazz Magazine - 1923 Jazz Collection
DYEAR=1923
DGENRE=Jazz
TTITLE0=King Oliver's Creole Jazz Band - Canal Street Blues
TTITLE1=King Oliver's Creole Jazz Band - Dippermouth Blues
TTITLE2=Bessie Smith - Down Hearted Blues
TTITLE3=New Orleans Rhythm Kings - Tin Roof Blues
TTITLE4=New Orleans Rhythm Kings - Millenberg Joys
TTITLE5=Lucille Hegamin - Land Of Cotton Blues
TTITLE6=Jelly-Roll Morton - New Orleans Joys
TTITLE7=Jelly-Roll Morton - The Pearls
TTITLE8=Ma Rainey - Bad Luck Blues
TTITLE9=Clarence William's Blue Fine - Wild Cat Blues
TTITLE10=Piron's New Orleans Orchestra - New Orleans Wiggle
TTITLE11=Mamie Smith - Kansas City Man Blues
TTITLE12=Ollie Power's Harmony Syncopators - Play That Thing !
EXTD=YEAR: 2008
EXTT0=
EXTT1=
EXTT2=
EXTT3=
EXTT4=
EXTT5=
EXTT6=
EXTT7=
EXTT8=
EXTT9=
EXTT10=
EXTT11=
EXTT12=
PLAYORDER=
